# xmcd CD database file
#
# Track frame offsets:
#	202
#	39360
#	71690
#	89687
#	126340
#	167832
#	177052
#	208157
#
# Disc length: 3096 seconds
#
# Revision: 0
# Processed by: cddbd v1.4PL0 Copyright (c) Steve Scherf et al.
# Submitted via: CDex 1.50beta9
#
DISCID=710c1608
DTITLE=Makoto Kuriya - Always Your Friend
DYEAR=1991
DGENRE=Jazz
TTITLE0=Siamese Floating Market
TTITLE1=Cocoa Flot
TTITLE2=Baby Samba
TTITLE3=Horizon From The Soil
TTITLE4=Islands
TTITLE5=New Introduction
TTITLE6=Triclinium
TTITLE7=Am I Always Your Friend
EXTD=YEAR: 1991
EXTT0=
EXTT1=
EXTT2=
EXTT3=
EXTT4=
EXTT5=
EXTT6=
EXTT7=
PLAYORDER=
